<svg id="eb3YTO1wdvM1" xmlns="http://www.w3.org/2000/svg" xmlns:xlink="http://www.w3.org/1999/xlink" viewBox="-340 -340 700 400" shape-rendering="geometricPrecision" text-rendering="geometricPrecision" project-id="bac41b348fe343f188311d7042c964ca" export-id="e62f11597caf4d91af1fcd9de4a07ab1" cached="false" style="background-color:rgba(0,0,0,0)"><defs><radialGradient id="eb3YTO1wdvM6-fill" cx="0" cy="0" r="0.5" spreadMethod="pad" gradientUnits="objectBoundingBox" gradientTransform="translate(0.5 0.5)"><stop id="eb3YTO1wdvM6-fill-0" offset="0%" stop-color="#fa01fc"/><stop id="eb3YTO1wdvM6-fill-1" offset="100%" stop-color="rgba(250,1,252,0)"/></radialGradient><radialGradient id="eb3YTO1wdvM7-fill" cx="0" cy="0" r="0.5" spreadMethod="pad" gradientUnits="objectBoundingBox" gradientTransform="translate(0.5 0.5)"><stop id="eb3YTO1wdvM7-fill-0" offset="0%" stop-color="#0054ff"/><stop id="eb3YTO1wdvM7-fill-1" offset="100%" stop-color="rgba(0,84,255,0)"/></radialGradient><filter id="eb3YTO1wdvM8-filter" x="-150%" y="-150%" width="400%" height="400%"><feColorMatrix id="eb3YTO1wdvM8-filter-hue-rotate-0" type="hueRotate" values="0" result="result"/></filter><linearGradient id="eb3YTO1wdvM11-fill" x1="0" y1="0.5" x2="1" y2="0.5" spreadMethod="pad" gradientUnits="objectBoundingBox" gradientTransform="translate(0 0)"><stop id="eb3YTO1wdvM11-fill-0" offset="0%" stop-color="#0054ff"/><stop id="eb3YTO1wdvM11-fill-1" offset="100%" stop-color="#fc0137"/></linearGradient><radialGradient id="eb3YTO1wdvM13-fill" cx="0" cy="0" r="0.763019" spreadMethod="pad" gradientUnits="objectBoundingBox" gradientTransform="matrix(0 -1 0.807221 0 0.934765 0.5)"><stop id="eb3YTO1wdvM13-fill-0" offset="24%" stop-color="#000"/><stop id="eb3YTO1wdvM13-fill-1" offset="100%" stop-color="#fff"/></radialGradient><radialGradient id="eb3YTO1wdvM14-fill" cx="0" cy="0" r="0.5" spreadMethod="pad" gradientUnits="objectBoundingBox" gradientTransform="translate(0.5 0.5)"><stop id="eb3YTO1wdvM14-fill-0" offset="0%" stop-color="#fa01fc"/><stop id="eb3YTO1wdvM14-fill-1" offset="100%" stop-color="rgba(252,1,55,0)"/></radialGradient><radialGradient id="eb3YTO1wdvM15-fill" cx="0" cy="0" r="0.5" spreadMethod="pad" gradientUnits="objectBoundingBox" gradientTransform="translate(0.5 0.5)"><stop id="eb3YTO1wdvM15-fill-0" offset="0%" stop-color="#fff"/><stop id="eb3YTO1wdvM15-fill-1" offset="100%" stop-color="rgba(255,255,255,0)"/></radialGradient><linearGradient id="eb3YTO1wdvM17-fill" x1="0.218881" y1="0.921618" x2="0.575964" y2="0.269703" spreadMethod="pad" gradientUnits="objectBoundingBox" gradientTransform="translate(0 0)"><stop id="eb3YTO1wdvM17-fill-0" offset="0%" stop-color="#000"/><stop id="eb3YTO1wdvM17-fill-1" offset="100%" stop-color="#d347ff"/></linearGradient><linearGradient id="eb3YTO1wdvM19-fill" x1="0.218881" y1="0.921618" x2="0.575964" y2="0.269703" spreadMethod="pad" gradientUnits="objectBoundingBox" gradientTransform="translate(0 0)"><stop id="eb3YTO1wdvM19-fill-0" offset="0%" stop-color="#000"/><stop id="eb3YTO1wdvM19-fill-1" offset="100%" stop-color="#d347ff"/></linearGradient><linearGradient id="eb3YTO1wdvM20-fill" x1="0.218881" y1="0.921618" x2="0.575964" y2="0.269703" spreadMethod="pad" gradientUnits="objectBoundingBox" gradientTransform="translate(0 0)"><stop id="eb3YTO1wdvM20-fill-0" offset="0%" stop-color="#000"/><stop id="eb3YTO1wdvM20-fill-1" offset="100%" stop-color="#d347ff"/></linearGradient><radialGradient id="eb3YTO1wdvM27-fill" cx="0" cy="0" r="0.766616" spreadMethod="pad" gradientUnits="objectBoundingBox" gradientTransform="translate(0.636744 0.566145)"><stop id="eb3YTO1wdvM27-fill-0" offset="62%" stop-color="rgba(211,71,255,0)"/><stop id="eb3YTO1wdvM27-fill-1" offset="100%" stop-color="#fff"/></radialGradient><radialGradient id="eb3YTO1wdvM30-fill" cx="0" cy="0" r="0.5" spreadMethod="pad" gradientUnits="objectBoundingBox" gradientTransform="translate(0.5 0.5)"><stop id="eb3YTO1wdvM30-fill-0" offset="0%" stop-color="#fff"/><stop id="eb3YTO1wdvM30-fill-1" offset="100%" stop-color="rgba(255,255,255,0)"/></radialGradient><linearGradient id="eb3YTO1wdvM31-stroke" x1="1.01278" y1="0.912121" x2="-0.03944" y2="0.00449" spreadMethod="pad" gradientUnits="objectBoundingBox" gradientTransform="translate(0 0)"><stop id="eb3YTO1wdvM31-stroke-0" offset="0%" stop-color="#fff"/><stop id="eb3YTO1wdvM31-stroke-1" offset="100%" stop-color="rgba(255,255,255,0)"/></linearGradient></defs><g transform="matrix(.68 0 0 0.68 10-140)"><g opacity="0.5"><path d="M200,0c.000001-109.316555-89.54305-200-200-200s-199.999999,89.885762-200,200" opacity="0.5" fill="none" stroke="#fff" stroke-width="2"/><path d="M200,0c.000001-109.316555-89.54305-200-200-200s-199.999999,89.885762-200,200" transform="matrix(.866025-.5 0.5 0.866025 0-.000001)" opacity="0.5" fill="none" stroke="#fff" stroke-width="2"/></g><ellipse rx="151" ry="151" transform="translate(134.257-96.7236)" opacity="0.25" fill="url(#eb3YTO1wdvM6-fill)" stroke-width="0"/><ellipse rx="151" ry="151" transform="translate(-142.916 49)" opacity="0.38" fill="url(#eb3YTO1wdvM7-fill)" stroke-width="0"/><g mask="url(#eb3YTO1wdvM21)" filter="url(#eb3YTO1wdvM8-filter)"><ellipse rx="277.941" ry="277.941" transform="matrix(.68 0 0 0.68 0 0)" opacity="0.8" stroke-width="0"/><g mask="url(#eb3YTO1wdvM12)"><ellipse rx="168.093" ry="168.093" fill="url(#eb3YTO1wdvM11-fill)" stroke-width="0"/><mask id="eb3YTO1wdvM12" mask-type="luminance" x="-150%" y="-150%" height="400%" width="400%"><ellipse rx="168.093" ry="168.093" transform="matrix(0 1-1 0 0 0)" fill="url(#eb3YTO1wdvM13-fill)" stroke-width="0"/></mask></g><ellipse rx="277.941" ry="277.941" transform="matrix(.68 0 0 0.68 0-140)" fill="url(#eb3YTO1wdvM14-fill)" stroke-width="0"/><ellipse rx="277.941" ry="277.941" transform="matrix(.68 0 0 0.68 0-60)" opacity="0.25" fill="url(#eb3YTO1wdvM15-fill)" stroke-width="0"/><g transform="matrix(.965926-.258819 0.258819 0.965926-.000001-.000001)"><path style="mix-blend-mode:screen" d="M-314.167894,121.222762c68.37375-47.951818,130.93536,25.721957,149.760721,77.555559c22.259285,61.288543,50.812996,116.56177,130.618732,125.507375-54.27346,20.352546-159.664992,17.881849-218.789885-43.249163s-61.589568-129.74749-61.589568-159.813771Z" transform="translate(33.7884-56.8051)" opacity="0.38" fill="url(#eb3YTO1wdvM17-fill)" stroke-width="1.024"/><g><path style="mix-blend-mode:screen" d="M-241.884025,-9.988618c7.711285,65.186627,87.944615,102.130341,151.937914,107.420456c81.948484,5.546737,139.16864-12.285676,188.827621,54.741996-27.378901,244.257403-276.603355,283.737326-387.205825,179.956012s-23.95015-300.030146,46.44029-342.118464Z" transform="translate(115.391-166.062)" opacity="0.349273" fill="url(#eb3YTO1wdvM19-fill)" stroke-width="1.024"/></g><path style="mix-blend-mode:screen" d="M-292.359856,81.636297c50.071889-13.817956,117.965055,48.774361,150.41758,86.565797c40.267513,44.471244,77.469889,77.688504,148.180351,104.157465-46.159374,87.904626-194.945289,98.090428-269.600964,24.091823s-50.233758-181.121756-28.996967-214.815085Z" transform="translate(74.5899-111.433)" opacity="0.38" fill="url(#eb3YTO1wdvM20-fill)" stroke-width="1.024"/></g><mask id="eb3YTO1wdvM21" mask-type="luminance" x="-150%" y="-150%" height="400%" width="400%"><g><path d="M-143.776898,0c0-79.405788,64.37111-143.776898,143.776898-143.776898s143.776899,64.37111,143.776899,143.776898-64.371111,143.776899-143.776899,143.776899-143.776898-64.371111-143.776898-143.776899Z" fill="#fff" stroke-width="0"/><path d="M-150,0c0-82.842712,67.157288-150,150-150s150,67.157288,150,150-67.157288,150-150,150-150-67.157288-150-150Z" transform="matrix(1.09349 0 0 0.961682 0 0)" opacity="0.38" fill="#fff" stroke-width="0"/><path d="M-150,0c0-82.842712,67.157288-150,150-150s150,67.157288,150,150-67.157288,150-150,150-150-67.157288-150-150Z" transform="matrix(.737871 0.737871-.69802 0.69802 0 0)" opacity="0.38" fill="#fff" stroke-width="0"/><path d="M-150,0c0-82.842712,67.157288-150,150-150s150,67.157288,150,150-67.157288,150-150,150-150-67.157288-150-150Z" transform="matrix(0 1.04351-.987149 0 0 0)" opacity="0.38" fill="#fff" stroke-width="0"/></g></mask></g><path d="M-137.256263,0c0-75.80454,61.451723-137.256263,137.256263-137.256263s137.256263,61.451723,137.256263,137.256263-61.451723,137.256263-137.256263,137.256263-137.256263-61.451723-137.256263-137.256263Z" fill="url(#eb3YTO1wdvM27-fill)" stroke-width="0"/><g><ellipse rx="200" ry="200" opacity="0.5" fill="none" stroke="#fff" stroke-width="2"/><ellipse rx="39.4628" ry="39.4628" transform="translate(200 0)" opacity="0.2" fill="url(#eb3YTO1wdvM30-fill)" stroke-width="8" stroke-linecap="round"/><path d="M0,-200c110.45695,0,200,89.54305,200,200" fill="none" stroke="url(#eb3YTO1wdvM31-stroke)" stroke-width="8" stroke-linecap="round" stroke-dasharray="0.01,14.26"/><path d="M200,0c0,110.45695-89.54305,200-200,200s-200-89.54305-200-200" opacity="0.5" fill="none" stroke="#fff" stroke-width="2"/><path d="M200,0c0,110.45695-89.54305,200-200,200s-200-89.54305-200-200" transform="matrix(.866025-.5 0.5 0.866025 0 0)" opacity="0.5" fill="none" stroke="#fff" stroke-width="2"/></g></g></svg>
