<svg width="853" height="853" viewBox="0 0 853 853" fill="none" xmlns="http://www.w3.org/2000/svg">
<path d="M512.09 725.59L469.006 824.269C452.444 862.2 399.954 862.2 383.393 824.269L340.308 725.59C301.966 637.772 232.953 567.87 146.868 529.658L28.2779 477.017C-9.426 460.281 -9.42593 405.431 28.2779 388.695L143.164 337.698C231.463 298.503 301.714 226.01 339.401 135.197C339.401 135.197 366.425 70.0825 383.044 30.0354C399.663 -10.0117 452.735 -10.0118 469.355 30.0353C485.975 70.0824 512.998 135.198 512.998 135.198C550.685 226.01 620.935 298.503 709.234 337.698L824.121 388.695C861.825 405.431 861.825 460.281 824.121 477.017L705.53 529.658C619.446 567.87 550.433 637.772 512.09 725.59Z" fill="url(#paint0_radial_4748_3)"/>
<defs>
<radialGradient id="paint0_radial_4748_3" cx="0" cy="0" r="1" gradientUnits="userSpaceOnUse" gradientTransform="translate(667.447 473.772) rotate(78.858) scale(665.5 665.824)">
<stop stop-color="#1BA1E3"/>
<stop offset="0.0001" stop-color="#1BA1E3"/>
<stop offset="0.300221" stop-color="#5489D6"/>
<stop offset="0.545524" stop-color="#9B72CB"/>
<stop offset="0.825372" stop-color="#D96570"/>
<stop offset="1" stop-color="#F49C46"/>
</radialGradient>
</defs>
</svg>
