<svg width="463" height="64" viewBox="0 0 463 64" fill="none" xmlns="http://www.w3.org/2000/svg">
<path d="M101.324 63.4499H99.5827L99.5873 36.3038C99.077 25.2307 92.7311 19.93 81.7547 20.5534C72.2575 21.0931 65.6927 28.0669 65.093 37.4657L65.0976 63.4494H63.4141V19.0472H65.0976V30.5547L66.3145 27.9948C69.2427 22.7045 74.6581 19.584 80.6133 18.9455C92.3026 17.6922 100.722 23.5099 101.329 35.6059L101.324 63.4494V63.4499Z" fill="white"/>
<path d="M51.9806 63.4498L51.9852 35.6064C51.555 27.68 47.3019 21.6954 39.1354 20.6894C27.0148 19.1965 18.0668 26.0616 17.4909 38.396L17.4955 63.4498H15.7539V19.0471H17.4955V30.5546L18.8691 27.8033C24.5138 17.0943 43.2898 15.448 50.4508 25.1695C52.9913 28.618 53.6932 32.9144 53.8429 37.1166C54.1495 45.6937 53.5974 54.4528 53.8429 63.0491L53.663 63.4498H51.9794H51.9806Z" fill="white"/>
<path d="M373.597 63.4497H371.856L371.861 36.7682C371.405 25.5405 365.347 19.8839 354.034 20.559C344.707 21.1155 338.055 27.8329 337.373 37.1229L337.377 63.0485L337.197 63.4491H335.514V19.2209C335.933 18.9354 336.966 18.9389 337.371 19.2209V30.4376L339.436 26.6343C343.661 20.4549 351.075 18.2253 358.329 18.9313C368.213 19.8932 373.187 26.5808 373.603 36.1861L373.597 63.4491V63.4497Z" fill="white"/>
<path d="M260.719 18.848C265.114 18.663 270.338 19.6557 274.213 21.7754C274.594 21.9836 276.468 23.113 276.521 23.4218C276.407 23.6933 275.704 24.7651 275.452 24.7262C270.728 21.1433 264.434 20.0494 258.608 20.688C253.902 21.2038 249.048 23.5067 248.216 28.6498C247.633 32.2565 248.791 35.2188 251.813 37.2269C259.027 42.0217 277.383 39.3547 278.273 50.9552C279.494 66.8673 254.473 65.9019 245.709 58.6804C245.475 58.4873 244.601 57.811 244.602 57.5813C244.602 57.3917 245.482 56.2152 245.69 56.2513C248.21 58.6077 251.561 60.2348 254.887 61.1153C261.87 62.9634 275.813 62.7901 276.531 53.0441C277.076 45.6505 270.593 44.0844 264.828 42.7945C257.537 41.1633 246.734 40.6946 246.229 30.9591C245.793 22.5535 253.535 19.1492 260.718 18.8474L260.719 18.848Z" fill="white"/>
<path d="M157.756 19.0479L176.857 61.2425L196.072 19.0479H198.162L177.673 63.4587L175.973 63.3784L155.666 19.0479H157.756Z" fill="white"/>
<path d="M5.29801 10.0722C8.07624 10.0722 10.3284 7.81748 10.3284 5.03611C10.3284 2.25475 8.07624 0 5.29801 0C2.51978 0 0.267578 2.25475 0.267578 5.03611C0.267578 7.81748 2.51978 10.0722 5.29801 10.0722Z" fill="white"/>
<path d="M6.11664 19.0479H4.375V63.4506H6.11664V19.0479Z" fill="white"/>
<path d="M236.592 63.4525H234.909L234.734 63.2781V54.2695L233.436 56.3985C226.663 67.2628 202.065 66.5562 202.221 51.0774C202.304 42.9045 209.11 39.3867 216.448 39.2763H234.735C234.65 36.161 235.004 33.0352 234.329 29.9751C233.27 25.1722 230.244 22.0546 225.425 20.9892C218.285 19.4109 209.981 21.6533 204.721 26.7197L203.51 25.4851C203.48 25.313 204.465 24.5006 204.661 24.3371C215.05 15.6751 236.409 15.9583 236.597 33.2841L236.593 63.4525H236.592ZM234.734 41.0185L215.746 41.0139C208.818 41.3995 203.43 44.8294 204.097 52.4533C204.632 58.5816 210.396 61.6207 215.978 61.9463C223.243 62.3703 229.324 60.3523 233.203 53.9572C233.42 53.5995 234.734 51.1419 234.734 50.9576V41.0191V41.0185Z" fill="white"/>
<path d="M325.181 41.249H285.82C285.737 48.3461 289.038 55.2233 295.119 58.9655C303.257 63.9743 315.188 62.8938 321.292 55.2007L322.383 56.3254C322.438 56.5388 322.025 56.9906 321.873 57.175C318.785 60.9463 312.478 63.4027 307.705 63.6818C290.804 64.6698 280.541 49.3405 285.208 33.6047C291.29 13.1014 319.886 14.3389 324.543 34.9713C325.007 37.0235 325.203 39.145 325.181 41.2496L325.181 41.249ZM323.44 39.6213C323.233 29.9398 316.04 21.1197 306.087 20.5527C294.562 19.8961 286.655 28.1859 285.817 39.3317C285.803 39.4294 285.937 39.6213 285.994 39.6213H323.44Z" fill="white"/>
<path d="M413.528 23.2503C413.664 23.4864 412.691 24.7658 412.463 24.7303C408.103 21.4005 402.414 20.2624 396.994 20.5567C391.878 20.8346 386.078 23.0549 385.227 28.7703C384.638 32.7311 386.122 35.7197 389.548 37.6684C396.738 41.7595 414.408 39.7381 415.284 50.8431C416.548 66.8709 391.644 65.9212 382.787 58.7334C382.58 58.5659 381.607 57.7239 381.609 57.5831L382.702 56.2543C384.882 58.2496 387.581 59.7185 390.379 60.6653C397.385 63.038 412.736 63.2781 413.542 53.164C414.116 45.9594 408.238 44.2526 402.515 42.936C396.118 41.4647 385.092 40.9046 383.526 32.887C381.952 24.8315 387.768 20.0402 395.158 19.0673C401.437 18.2404 408.35 19.55 413.528 23.2509V23.2503Z" fill="white"/>
<path d="M462.193 41.2515H422.832C422.786 48.2922 426.035 55.1636 432.061 58.9221C440.196 63.9972 452.193 62.9109 458.32 55.2084L459.515 56.3203C454.302 63.0237 444.73 65.0533 436.74 62.8388C423.933 59.2885 418.559 45.5607 422.31 33.3478C425.709 22.2818 436.965 16.2122 448.12 19.8306C457.188 22.772 462.557 31.894 462.194 41.2515H462.193ZM460.452 39.6238C460.269 30.3901 453.759 21.8619 444.354 20.6936C432.389 19.2077 423.655 27.7395 422.854 39.3615L423.006 39.6238H460.452Z" fill="white"/>
<path d="M129.279 18.8505C145.37 17.7874 155.215 31.8903 151.865 47.0405C147.009 68.9988 115.539 69.3238 110.201 47.5284C106.865 33.9059 114.618 19.8187 129.279 18.8505H129.279ZM128.931 20.5945C115.321 21.6529 108.618 35.5441 112.151 47.9006C117.521 66.6813 144.422 66.6947 149.796 47.875C153.94 33.3604 144.564 19.3785 128.931 20.5945Z" fill="white"/>
</svg>
